<svg xmlns="http://www.w3.org/2000/svg" xmlns:xlink="http://www.w3.org/1999/xlink" width="110" zoomAndPan="magnify" viewBox="0 0 82.5 100.499998" height="134" preserveAspectRatio="xMidYMid meet" version="1.0"><defs><g/><clipPath id="5150af5b72"><path d="M 0 0.0546875 L 80 0.0546875 L 80 98 L 0 98 Z M 0 0.0546875 " clip-rule="nonzero"/></clipPath><clipPath id="3cb3f659f6"><path d="M 0 0.0546875 L 81.257812 0.0546875 L 81.257812 99.203125 L 0 99.203125 Z M 0 0.0546875 " clip-rule="nonzero"/></clipPath><clipPath id="0e07e7461f"><rect x="0" width="30" y="0" height="8"/></clipPath></defs><g clip-path="url(#5150af5b72)"><path fill="#fff2e2" d="M 0.367188 0.332031 L 0.367188 97.238281 L 79.214844 97.238281 L 79.214844 0.332031 Z M 77.597656 86.496094 L 1.980469 86.496094 L 1.980469 11.074219 L 77.597656 11.074219 Z M 77.597656 86.496094 " fill-opacity="1" fill-rule="nonzero"/></g><path fill="#d64479" d="M 9.699219 92.308594 L 9.675781 92.324219 C 9.585938 92.417969 9.488281 92.503906 9.382812 92.574219 L 7.128906 94.492188 L 4.886719 92.582031 C 4.769531 92.503906 4.664062 92.414062 4.566406 92.308594 C 4.300781 92.011719 4.136719 91.625 4.136719 91.199219 C 4.136719 90.285156 4.878906 89.542969 5.792969 89.542969 C 6.34375 89.542969 6.828125 89.8125 7.128906 90.222656 C 7.429688 89.8125 7.917969 89.542969 8.464844 89.542969 C 9.378906 89.542969 10.121094 90.285156 10.121094 91.199219 C 10.121094 91.625 9.957031 92.011719 9.691406 92.304688 L 9.699219 92.304688 Z M 9.699219 92.308594 " fill-opacity="1" fill-rule="nonzero"/><path fill="#6819ce" d="M 68.132812 5.910156 C 68.132812 6.328125 67.792969 6.664062 67.378906 6.664062 C 66.964844 6.664062 66.621094 6.324219 66.621094 5.910156 C 66.621094 5.496094 66.964844 5.15625 67.378906 5.15625 C 67.792969 5.15625 68.132812 5.496094 68.132812 5.910156 Z M 70.246094 5.15625 C 69.828125 5.15625 69.492188 5.496094 69.492188 5.910156 C 69.492188 6.324219 69.832031 6.664062 70.246094 6.664062 C 70.664062 6.664062 71.003906 6.324219 71.003906 5.910156 C 71.003906 5.496094 70.664062 5.15625 70.246094 5.15625 Z M 73.117188 5.15625 C 72.695312 5.15625 72.359375 5.496094 72.359375 5.910156 C 72.359375 6.324219 72.699219 6.664062 73.117188 6.664062 C 73.53125 6.664062 73.871094 6.324219 73.871094 5.910156 C 73.871094 5.496094 73.53125 5.15625 73.117188 5.15625 Z M 26.5625 92.375 L 27.753906 94.742188 L 29.644531 89.296875 L 24.1875 91.183594 L 26.558594 92.371094 Z M 26.5625 92.375 " fill-opacity="1" fill-rule="nonzero"/><path fill="#fdba2f" d="M 11.757812 5.507812 C 11.757812 7.289062 10.308594 8.734375 8.523438 8.734375 C 6.734375 8.734375 5.285156 7.289062 5.285156 5.507812 C 5.285156 3.726562 6.734375 2.28125 8.523438 2.28125 C 10.308594 2.28125 11.757812 3.726562 11.757812 5.507812 Z M 19.71875 92.015625 C 19.71875 90.585938 18.554688 89.425781 17.117188 89.425781 C 15.683594 89.425781 14.519531 90.585938 14.519531 92.015625 C 14.519531 93.449219 15.660156 94.582031 17.078125 94.605469 L 20.152344 94.605469 L 19.1875 93.578125 C 19.519531 93.140625 19.71875 92.605469 19.71875 92.011719 Z M 69.488281 89.320312 L 69.488281 94.710938 L 71.757812 92.691406 L 74.03125 94.710938 L 74.03125 89.320312 Z M 69.488281 89.320312 " fill-opacity="1" fill-rule="nonzero"/><g clip-path="url(#3cb3f659f6)"><path fill="#1b1b1b" d="M 77.875 10.796875 L 1.703125 10.796875 L 1.703125 86.777344 L 77.875 86.777344 Z M 77.320312 86.21875 L 2.257812 86.21875 L 2.257812 11.351562 L 77.320312 11.351562 Z M 8.523438 9.011719 C 10.457031 9.011719 12.035156 7.4375 12.035156 5.507812 C 12.035156 3.578125 10.457031 2.003906 8.523438 2.003906 C 6.585938 2.003906 5.007812 3.578125 5.007812 5.507812 C 5.007812 7.4375 6.585938 9.011719 8.523438 9.011719 Z M 8.523438 2.558594 C 10.152344 2.558594 11.480469 3.882812 11.480469 5.507812 C 11.480469 7.132812 10.152344 8.457031 8.523438 8.457031 C 6.890625 8.457031 5.566406 7.132812 5.566406 5.507812 C 5.566406 3.882812 6.890625 2.558594 8.523438 2.558594 Z M 67.378906 6.941406 C 67.949219 6.941406 68.414062 6.476562 68.414062 5.910156 C 68.414062 5.339844 67.949219 4.878906 67.378906 4.878906 C 66.808594 4.878906 66.34375 5.339844 66.34375 5.910156 C 66.34375 6.476562 66.808594 6.941406 67.378906 6.941406 Z M 67.378906 5.429688 C 67.644531 5.429688 67.855469 5.644531 67.855469 5.90625 C 67.855469 6.164062 67.640625 6.378906 67.378906 6.378906 C 67.117188 6.378906 66.902344 6.164062 66.902344 5.90625 C 66.902344 5.644531 67.117188 5.429688 67.378906 5.429688 Z M 70.246094 6.941406 C 70.816406 6.941406 71.28125 6.476562 71.28125 5.910156 C 71.28125 5.339844 70.816406 4.878906 70.246094 4.878906 C 69.675781 4.878906 69.214844 5.339844 69.214844 5.910156 C 69.214844 6.476562 69.675781 6.941406 70.246094 6.941406 Z M 70.246094 5.429688 C 70.511719 5.429688 70.726562 5.644531 70.726562 5.90625 C 70.726562 6.164062 70.507812 6.378906 70.246094 6.378906 C 69.988281 6.378906 69.769531 6.164062 69.769531 5.90625 C 69.769531 5.644531 69.988281 5.429688 70.246094 5.429688 Z M 73.117188 6.941406 C 73.6875 6.941406 74.148438 6.476562 74.148438 5.910156 C 74.148438 5.339844 73.6875 4.878906 73.117188 4.878906 C 72.546875 4.878906 72.082031 5.339844 72.082031 5.910156 C 72.082031 6.476562 72.546875 6.941406 73.117188 6.941406 Z M 73.117188 5.429688 C 73.382812 5.429688 73.59375 5.644531 73.59375 5.90625 C 73.59375 6.164062 73.375 6.378906 73.117188 6.378906 C 72.855469 6.378906 72.636719 6.164062 72.636719 5.90625 C 72.636719 5.644531 72.855469 5.429688 73.117188 5.429688 Z M 19.484375 93.554688 C 20.050781 92.6875 20.101562 91.558594 19.59375 90.640625 C 19.128906 89.808594 18.257812 89.265625 17.3125 89.195312 C 16.332031 89.125 15.378906 89.59375 14.808594 90.386719 C 14.242188 91.171875 14.136719 92.230469 14.515625 93.113281 C 14.949219 94.132812 15.953125 94.789062 17.050781 94.835938 C 17.0625 94.835938 17.070312 94.835938 17.074219 94.835938 C 17.082031 94.835938 17.105469 94.835938 17.117188 94.835938 C 18.128906 94.835938 19.136719 94.835938 20.152344 94.835938 C 20.359375 94.835938 20.453125 94.582031 20.3125 94.4375 C 20.035156 94.140625 19.761719 93.847656 19.484375 93.550781 Z M 17.117188 94.375 C 17.117188 94.375 17.101562 94.375 17.085938 94.375 C 17.085938 94.375 17.078125 94.375 17.074219 94.375 C 16.257812 94.355469 15.496094 93.921875 15.078125 93.214844 C 14.65625 92.507812 14.644531 91.601562 15.042969 90.878906 C 15.863281 89.402344 18.019531 89.25 19.027344 90.625 C 19.652344 91.480469 19.605469 92.621094 18.984375 93.46875 C 18.921875 93.550781 18.953125 93.679688 19.019531 93.75 C 19.21875 93.960938 19.414062 94.171875 19.613281 94.382812 C 18.78125 94.382812 17.945312 94.382812 17.113281 94.382812 Z M 9.644531 89.71875 C 8.871094 89.109375 7.804688 89.222656 7.128906 89.878906 C 6.453125 89.222656 5.390625 89.109375 4.613281 89.71875 C 3.773438 90.386719 3.699219 91.589844 4.355469 92.402344 C 4.367188 92.421875 4.378906 92.445312 4.402344 92.460938 C 5.253906 93.191406 6.113281 93.921875 6.96875 94.648438 C 7.070312 94.738281 7.195312 94.738281 7.296875 94.648438 C 8.148438 93.921875 9.007812 93.191406 9.867188 92.460938 C 9.890625 92.441406 9.90625 92.417969 9.917969 92.390625 C 10.5625 91.582031 10.484375 90.382812 9.648438 89.71875 Z M 9.53125 92.136719 L 9.519531 92.148438 C 8.726562 92.828125 7.929688 93.507812 7.132812 94.183594 C 6.332031 93.5 5.527344 92.820312 4.734375 92.136719 C 4.203125 91.527344 4.269531 90.59375 4.902344 90.082031 C 5.519531 89.582031 6.453125 89.703125 6.933594 90.328125 C 7.046875 90.472656 7.222656 90.472656 7.335938 90.328125 C 7.820312 89.699219 8.75 89.578125 9.371094 90.082031 C 10.003906 90.59375 10.0625 91.527344 9.539062 92.132812 Z M 29.617188 89.058594 C 29.617188 89.058594 29.578125 89.066406 29.554688 89.078125 C 27.972656 89.625 26.386719 90.175781 24.804688 90.722656 C 24.578125 90.800781 24.359375 90.875 24.132812 90.953125 C 23.960938 91.015625 23.886719 91.28125 24.074219 91.378906 C 24.847656 91.765625 25.621094 92.148438 26.394531 92.539062 C 26.785156 93.308594 27.167969 94.082031 27.558594 94.851562 C 27.65625 95.042969 27.921875 94.972656 27.984375 94.792969 C 28.535156 93.203125 29.089844 91.613281 29.644531 90.019531 C 29.71875 89.808594 29.789062 89.59375 29.867188 89.382812 C 29.875 89.359375 29.882812 89.339844 29.882812 89.320312 C 29.902344 89.234375 29.871094 89.164062 29.816406 89.121094 C 29.773438 89.066406 29.707031 89.039062 29.617188 89.054688 Z M 26.523438 92.082031 C 25.945312 91.792969 25.371094 91.507812 24.792969 91.214844 C 26.117188 90.757812 27.449219 90.296875 28.773438 89.835938 L 26.785156 91.820312 L 26.519531 92.082031 Z M 27.769531 94 L 27.722656 94.136719 C 27.429688 93.558594 27.144531 92.988281 26.851562 92.410156 C 27.601562 91.660156 28.355469 90.910156 29.101562 90.164062 C 28.65625 91.445312 28.214844 92.722656 27.765625 94 Z M 69.214844 95.328125 L 71.761719 93.0625 L 74.3125 95.328125 L 74.3125 89.035156 L 69.214844 89.035156 Z M 69.769531 89.59375 L 73.757812 89.59375 L 73.757812 94.089844 L 71.761719 92.316406 L 69.769531 94.089844 Z M 79.5 2.128906 L 79.5 0.0507812 L 0.0898438 0.0507812 L 0.0898438 97.511719 L 2.257812 97.511719 L 2.257812 99.210938 L 81.195312 99.210938 L 81.195312 2.136719 L 79.488281 2.136719 Z M 78.941406 96.953125 L 0.644531 96.953125 L 0.644531 0.609375 L 78.9375 0.609375 L 78.9375 96.960938 Z M 78.941406 96.953125 " fill-opacity="1" fill-rule="nonzero"/></g><g transform="matrix(1, 0, 0, 1, 24, 2)"><g clip-path="url(#0e07e7461f)"><g fill="#000000" fill-opacity="1"><g transform="translate(1.062017, 5.588574)"><g><path d="M 2.59375 -3.109375 L 2.59375 -2.078125 L 3.109375 -2.078125 L 3.109375 -1.03125 L 3.625 -1.03125 L 3.625 0 L 3.109375 0 L 3.109375 -1.03125 L 0.515625 -1.03125 L 0.515625 -2.078125 L 1.03125 -2.078125 L 1.03125 -3.109375 L 1.5625 -3.109375 L 1.5625 -3.625 L 2.078125 -3.625 L 2.078125 -3.109375 Z M 2.078125 -3.109375 L 1.5625 -3.109375 L 1.5625 -2.0625 L 1.03125 -2.0625 L 1.03125 -1.5625 L 2.59375 -1.5625 L 2.59375 -2.0625 L 2.078125 -2.0625 Z M 0 0 L 0 -1.03125 L 0.515625 -1.03125 L 0.515625 0 Z M 0 0 "/></g></g><g transform="translate(5.734018, 5.588574)"><g><path d="M 2.078125 -0.515625 L 2.078125 0 L 0 0 L 0 -3.625 L 0.515625 -3.625 L 0.515625 -2.59375 L 2.078125 -2.59375 L 2.078125 -2.078125 L 2.59375 -2.078125 L 2.59375 -0.515625 Z M 0.515625 -0.515625 L 2.0625 -0.515625 L 2.0625 -2.078125 L 0.515625 -2.078125 Z M 0.515625 -0.515625 "/></g></g><g transform="translate(9.369206, 5.588574)"><g><path d="M 2.078125 -0.515625 L 2.078125 0 L 0.515625 0 L 0.515625 -0.515625 L 0 -0.515625 L 0 -2.078125 L 0.515625 -2.078125 L 0.515625 -2.59375 L 2.078125 -2.59375 L 2.078125 -2.078125 L 2.59375 -2.078125 L 2.59375 -0.515625 Z M 0.53125 -0.515625 L 2.0625 -0.515625 L 2.0625 -2.078125 L 0.53125 -2.078125 Z M 0.53125 -0.515625 "/></g></g><g transform="translate(13.004393, 5.588574)"><g><path d="M 0 -0.515625 L 0 -2.59375 L 0.515625 -2.59375 L 0.515625 -0.515625 L 2.078125 -0.515625 L 2.078125 -2.59375 L 2.59375 -2.59375 L 2.59375 0 L 0.515625 0 L 0.515625 -0.515625 Z M 0 -0.515625 "/></g></g><g transform="translate(16.63958, 5.588574)"><g><path d="M 0.515625 0 L 0.515625 -0.515625 L 0 -0.515625 L 0 -2.078125 L -0.515625 -2.078125 L -0.515625 -2.59375 L 0 -2.59375 L 0 -3.625 L 0.515625 -3.625 L 0.515625 -2.59375 L 1.5625 -2.59375 L 1.5625 -2.078125 L 0.515625 -2.078125 L 0.515625 -0.515625 L 1.5625 -0.515625 L 1.5625 0 Z M 0.515625 0 "/></g></g><g transform="translate(19.235418, 5.588574)"><g/></g><g transform="translate(20.791907, 5.588574)"><g><path d="M 1.5625 -2.59375 L 1.5625 -1.03125 L 2.59375 -1.03125 L 2.59375 0 L 1.5625 0 L 1.5625 -1.03125 L 1.03125 -1.03125 L 1.03125 -2.59375 L 0.515625 -2.59375 L 0.515625 0 L 0 0 L 0 -3.625 L 1.03125 -3.625 L 1.03125 -2.59375 Z M 3.109375 -3.625 L 4.15625 -3.625 L 4.15625 0 L 3.625 0 L 3.625 -2.59375 L 3.109375 -2.59375 Z M 2.59375 -1.03125 L 2.59375 -2.59375 L 3.109375 -2.59375 L 3.109375 -1.03125 Z M 2.59375 -1.03125 "/></g></g><g transform="translate(25.983584, 5.588574)"><g><path d="M 0.515625 -0.515625 L 2.59375 -0.515625 L 2.59375 0 L 0.515625 0 L 0.515625 -0.515625 L 0 -0.515625 L 0 -2.078125 L 0.515625 -2.078125 L 0.515625 -2.59375 L 2.078125 -2.59375 L 2.078125 -2.078125 L 2.59375 -2.078125 L 2.59375 -1.03125 L 0.515625 -1.03125 Z M 2.078125 -1.5625 L 2.078125 -2.0625 L 0.515625 -2.0625 L 0.515625 -1.5625 Z M 2.078125 -1.5625 "/></g></g></g></g></g></svg>